HIERARCHY
ROOT Hips
{
	OFFSET 0.000000 0.000000 0.000000
	CHANNELS 6 Xposition Yposition Zposition Zrotation Yrotation Xrotation 
	JOINT LHipJoint
	{
		OFFSET 0.000000 0.000000 0.000000
		CHANNELS 3 Zrotation Yrotation Xrotation
		JOINT LeftUpLeg
		{
			OFFSET 1.363060 -1.794630 0.839290
			CHANNELS 3 Zrotation Yrotation Xrotation
			JOINT LeftLeg
			{
				OFFSET 2.448110 -6.726130 0.000000
				CHANNELS 3 Zrotation Yrotation Xrotation
				JOINT LeftFoot
				{
					OFFSET 2.562200 -7.039590 0.000000
					CHANNELS 3 Zrotation Yrotation Xrotation
					JOINT LeftToeBase
					{
						OFFSET 0.157640 -0.433110 2.322550
						CHANNELS 3 Zrotation Yrotation Xrotation
						End Site
						{
							OFFSET 0.000000 0.000000 0.000000
						}
					}
				}
			}
		}
	}
	JOINT RHipJoint
	{
		OFFSET 0.000000 0.000000 0.000000
		CHANNELS 3 Zrotation Yrotation Xrotation
		JOINT RightUpLeg
		{
			OFFSET -1.305520 -1.794630 0.839290
			CHANNELS 3 Zrotation Yrotation Xrotation
			JOINT RightLeg
			{
				OFFSET -2.542530 -6.985550 0.000000
				CHANNELS 3 Zrotation Yrotation Xrotation
				JOINT RightFoot
				{
					OFFSET -2.568260 -7.056230 0.000000
					CHANNELS 3 Zrotation Yrotation Xrotation
					JOINT RightToeBase
					{
						OFFSET -0.164730 -0.452590 2.363150
						CHANNELS 3 Zrotation Yrotation Xrotation
						End Site
						{
							OFFSET 0.000000 0.000000 0.000000
						}
					}
				}
			}
		}
	}
}
MOTION
Frames: 30
Frame Time: 0.008333
3.507618 16.767223 -1.240083 -89.465024 87.938504 -92.148265 -10.751980 1.024077 -0.184744 -20.027762 16.315420 -27.092538 -2.206997 0.120092 21.114228 3.090766 16.197855 -14.384236 178.081900 -0.000001 -1.416700 10.419995 -3.151819 -2.475720 -13.734877 -20.460411 5.927241 -0.854041 -2.452857 37.661836 -2.184697 -3.302473 36.514264 -1.293100 -0.000000 -71.949500
3.714126 16.705910 -1.295786 -96.064683 87.971338 -98.974009 -10.709382 1.145454 -0.327146 -20.153635 16.439996 -27.182631 -2.210680 0.344630 23.389103 3.028473 15.809058 -14.948865 177.926300 -0.000001 -3.047200 10.552534 -2.904502 -2.630748 -14.266254 -20.910356 4.838601 -0.959803 -2.535194 40.584697 -2.393346 -5.813273 35.449800 -2.862300 0.000001 -67.609900
3.917460 16.647834 -1.350967 -104.538285 87.981171 -107.612949 -10.641937 1.274659 -0.451004 -20.342735 16.485983 -27.236498 -2.220715 0.551771 25.524865 2.977543 15.424712 -15.629332 177.746699 0.000000 -4.373600 10.693734 -2.668017 -2.767599 -14.661123 -21.252215 3.606215 -1.060383 -2.642077 43.467373 -2.570388 -8.190996 33.759800 -4.241900 0.000000 -63.396000
4.117838 16.594908 -1.406338 -114.736717 87.929510 -117.908183 -10.550676 1.404298 -0.549696 -20.582108 16.411803 -27.220886 -2.233028 0.734733 27.468524 2.944926 15.078166 -16.426865 177.540299 -0.000000 -5.441900 10.843416 -2.452729 -2.878029 -14.893840 -21.459347 2.227528 -1.154808 -2.773215 46.262548 -2.709201 -10.264690 31.546769 -5.288900 0.000000 -59.466800
4.315563 16.548723 -1.462395 -126.002030 87.780950 -129.201279 -10.441246 1.526120 -0.621236 -20.864181 16.195561 -27.097135 -2.243874 0.887505 29.170252 2.934055 14.793940 -17.315531 177.310600 0.000000 -6.209100 10.997974 -2.267062 -2.956417 -14.961012 -21.517956 0.715469 -1.239813 -2.926966 48.920824 -2.805132 -11.925402 28.935046 -5.932000 -0.000000 -55.882400
4.510914 16.510608 -1.519988 -137.024542 87.514741 -140.184797 -10.330493 1.630352 -0.665801 -21.173658 15.839430 -26.843007 -2.252309 1.006334 30.597074 2.946016 14.582290 -18.279739 177.057400 -0.000000 -6.822300 11.141311 -2.117568 -2.997163 -14.855261 -21.410134 -0.913377 -1.312159 -3.097975 51.390570 -2.857258 -13.142200 26.066525 -6.181200 -0.000001 -52.726600
4.704187 16.481391 -1.579645 -146.748473 87.145927 -149.814592 -10.231706 1.715553 -0.685768 -21.500673 15.361534 -26.430809 -2.260101 1.091632 31.712836 2.979004 14.449858 -19.273501 176.788601 -0.000000 -7.251000 11.259853 -1.999778 -3.000817 -14.597817 -21.129827 -2.625800 -1.372018 -3.276008 53.624958 -2.866395 -13.922621 23.066397 -6.089000 0.000000 -49.961200
4.895699 16.461571 -1.642159 -154.530082 86.710395 -157.460866 -10.150606 1.785516 -0.685540 -21.822849 14.799051 -25.848850 -2.270817 1.146510 32.495808 3.029474 14.392048 -20.260618 176.511300 -0.000000 -7.580600 11.347080 -1.903872 -2.968627 -14.198041 -20.666953 -4.383981 -1.420901 -3.445952 55.577814 -2.837825 -14.321160 20.064001 -5.747200 -0.000001 -47.666700
5.085772 16.451195 -1.707827 -160.458500 86.240479 -163.230317 -10.081980 1.845768 -0.671457 -22.124510 14.188982 -25.083420 -2.285824 1.173446 32.928900 3.092217 14.399424 -21.190634 176.237900 0.000000 -7.796800 11.408432 -1.819681 -2.905108 -13.681738 -20.033723 -6.141304 -1.457662 -3.596278 57.212687 -2.777410 -14.398841 17.151948 -5.244600 0.000000 -45.753200
5.274544 16.449994 -1.777698 -164.543043 85.765525 -167.144759 -10.024913 1.896821 -0.651807 -22.371073 13.580248 -24.145755 -2.304362 1.174351 33.020076 3.160297 14.450545 -22.028899 175.980301 0.000000 -7.949700 11.446599 -1.743763 -2.810031 -13.038594 -19.224952 -7.862668 -1.479719 -3.717420 58.497175 -2.696770 -14.256641 14.438936 -4.682200 -0.000001 -44.413000
5.462464 16.457385 -1.851632 -167.313126 85.293246 -169.746010 -9.975064 1.940682 -0.631993 -22.561851 12.998802 -23.032433 -2.324814 1.150077 32.770823 3.226906 14.526170 -22.729481 175.754901 -0.000000 -8.011000 11.466536 -1.671961 -2.688738 -12.304810 -18.276066 -9.509517 -1.483502 -3.807253 59.417285 -2.603881 -13.964165 11.961596 -4.118100 -0.000000 -43.443200
5.649704 16.472518 -1.929948 -168.980660 84.831736 -171.251295 -9.933834 1.977646 -0.615917 -22.684731 12.472004 -21.765224 -2.345405 1.102728 32.204400 3.284684 14.600307 -23.263713 175.576300 0.000000 -7.981300 11.467845 -1.602802 -2.542674 -11.486030 -17.203405 -11.062497 -1.467645 -3.863846 59.968991 -2.509860 -13.609844 9.754431 -3.602701 0.000000 -42.811000
5.836597 16.494444 -2.012642 -169.788795 84.380108 -171.903866 -9.902273 2.009377 -0.604441 -22.737405 12.013053 -20.369614 -2.364729 1.035103 31.350534 3.327155 14.648100 -23.611049 175.458100 -0.000000 -7.849300 11.450001 -1.533954 -2.373914 -10.594026 -16.028991 -12.511994 -1.432284 -3.887329 60.160770 -2.424391 -13.267936 7.817986 -3.161100 -0.000001 -42.387500
6.023345 16.522094 -2.099506 -169.926759 83.931837 -171.888040 -9.881675 2.038144 -0.595331 -22.720820 11.623705 -18.879584 -2.381791 0.950632 30.247792 3.349058 14.646226 -23.763461 175.409701 -0.000000 -7.605300 11.412077 -1.463188 -2.183708 -9.637588 -14.773022 -13.858594 -1.378833 -3.878665 60.010199 -2.355760 -12.999794 6.131509 -2.801500 0.000001 -42.026900
6.210227 16.554403 -2.190151 -169.564369 83.473813 -171.365011 -9.873344 2.066424 -0.584279 -22.638283 11.294590 -17.330904 -2.395945 0.853092 28.940582 3.346712 14.575223 -23.724495 175.435800 0.000000 -7.244600 11.353146 -1.388146 -1.973164 -8.626274 -13.454463 -15.109577 -1.309388 -3.839473 59.539292 -2.310429 -12.850373 4.663194 -2.521100 0.000000 -41.595201
6.397380 16.590286 -2.283990 -168.859876 82.988246 -170.482482 -9.878479 2.096274 -0.565229 -22.495144 11.006476 -15.760764 -2.406763 0.746298 27.478261 3.318567 14.422235 -23.510029 175.534700 0.000000 -6.771600 11.272331 -1.306976 -1.742877 -7.570868 -12.090255 -16.277228 -1.226400 -3.771808 58.772198 -2.292861 -12.846800 3.379704 -2.311001 0.000000 -40.993900
6.584823 16.628826 -2.380310 -167.954113 82.454978 -169.375025 -9.898952 2.128745 -0.534360 -22.293834 10.739860 -14.194710 -2.413970 0.633879 25.906725 3.264211 14.178860 -23.142678 175.699400 -0.000000 -6.198500 11.168640 -1.218434 -1.496085 -6.485627 -10.698643 -17.367354 -1.132224 -3.678377 57.729796 -2.305201 -12.997027 2.254785 -2.160600 -0.000000 -40.174000
6.772704 16.668999 -2.478202 -167.010663 81.847903 -168.193206 -9.934082 2.164581 -0.482536 -22.046057 10.456870 -12.665305 -2.416902 0.518934 24.277389 3.186826 13.850715 -22.653344 175.916600 0.000000 -5.542200 11.042341 -1.122681 -1.232177 -5.387900 -9.296322 -18.398799 -1.029400 -3.561854 56.435520 -2.348164 -13.296358 1.271013 -2.060400 0.000000 -39.125400
6.960846 16.709946 -2.576728 -166.167934 81.142722 -167.074831 -9.982817 2.203054 -0.406661 -21.759759 10.128801 -11.180325 -2.414966 0.404099 22.628124 3.089960 13.446954 -22.071962 176.171500 -0.000000 -4.824000 10.894740 -1.020606 -0.956301 -4.303064 -7.908445 -19.373267 -0.919867 -3.425943 54.905749 -2.419467 -13.720946 0.423518 -2.002900 0.000000 -37.886100
7.149021 16.750962 -2.675279 -165.473862 80.326572 -166.073525 -10.045702 2.242526 -0.308255 -21.431697 9.742116 -9.738507 -2.407275 0.291794 20.988698 2.977115 12.978655 -21.426567 176.449900 -0.000000 -4.065401 10.726665 -0.914558 -0.675279 -3.245873 -6.556521 -20.287065 -0.805403 -3.273972 53.153315 -2.515207 -14.241224 -0.276297 -1.986100 -0.000000 -36.566500
7.337137 16.791169 -2.772725 -165.050019 79.378161 -165.313801 -10.115837 2.282518 -0.182719 -21.082652 9.258247 -8.333514 -2.393035 0.183825 19.383742 2.855309 12.473454 -20.741081 176.736400 0.000000 -3.285800 10.543899 -0.806736 -0.395274 -2.248606 -5.280121 -21.143196 -0.687309 -3.109666 51.196459 -2.628622 -14.814147 -0.822522 -2.007900 0.000000 -35.280000
7.524861 16.829971 -2.868745 -164.868302 78.296890 -164.779159 -10.192081 2.321972 -0.034784 -20.710270 8.675630 -6.953087 -2.371735 0.082267 17.827838 2.728138 11.946806 -20.032112 177.021500 0.000000 -2.490100 10.349319 -0.700379 -0.124381 -1.319469 -4.102898 -21.934079 -0.566182 -2.935466 49.047478 -2.751964 -15.400042 -1.203087 -2.070400 -0.000000 -34.156999
7.712041 16.866726 -2.962774 -164.934602 77.082970 -164.486827 -10.269269 2.361330 0.133205 -20.326875 7.985999 -5.581186 -2.343451 -0.011088 16.329220 2.600120 11.420149 -19.308137 177.298000 0.000000 -1.678900 10.148917 -0.598108 0.128947 -0.473436 -3.061205 -22.654095 -0.441515 -2.753728 46.724448 -2.875415 -15.952228 -1.422189 -2.171199 0.000000 -33.304000
7.898522 16.900851 -3.054561 -165.216390 75.746059 -164.416875 -10.343580 2.401734 0.316468 -19.941369 7.196788 -4.204502 -2.309069 -0.094411 14.892901 2.473678 10.906313 -18.570771 177.562900 -0.000000 -0.842500 9.948317 -0.502255 0.357071 0.284726 -2.185173 -23.297795 -0.311514 -2.565937 44.246898 -2.988720 -16.425712 -1.498213 -2.303200 0.000000 -32.783300
8.084254 16.931965 -3.144074 -165.666013 74.303803 -164.532578 -10.412393 2.445258 0.508755 -19.560452 6.329404 -2.815926 -2.270329 -0.165889 13.523346 2.349210 10.408877 -17.815436 -2.183200 0.000000 -0.041200 9.752627 -0.414576 0.554321 0.959008 -1.496696 -23.860785 -0.173300 -2.372628 41.635258 -3.082347 -16.781014 -1.462787 -2.453600 -0.000000 -32.608001
8.269289 16.959800 -3.231499 -166.230667 72.780786 -164.789299 -10.474171 2.494401 0.702499 -19.189666 5.417737 -1.416823 -2.229676 -0.223810 12.226812 2.225197 9.921782 -17.032206 -1.937400 -0.000000 -1.002600 9.566119 -0.336105 0.718622 1.559827 -1.002923 -24.341842 -0.023599 -2.173491 38.909871 -3.148892 -16.990106 -1.352126 -2.606900 -0.000001 -32.773500
8.453755 16.984091 -3.317165 -166.870778 71.199606 -165.153839 -10.527525 2.552151 0.891043 -18.833326 4.501138 -0.016283 -2.190414 -0.266686 11.015639 2.098700 9.428475 -16.213735 -1.696500 -0.000001 -2.068400 9.393130 -0.267150 0.849520 2.099635 -0.711991 -24.743292 0.141688 -1.967696 36.093792 -3.181422 -17.024925 -1.211095 -2.741900 -0.000000 -33.206500
8.637913 17.004798 -3.401549 -167.546932 69.588486 -165.589102 -10.572421 2.621102 1.066974 -18.491855 3.626506 1.367680 -2.155825 -0.293307 9.905845 1.965852 8.906378 -15.350792 -1.457800 0.000000 -3.277600 9.236440 -0.207154 0.950810 2.595236 -0.613739 -25.073124 0.325433 -1.753714 33.208659 -3.176958 -16.877970 -1.071322 -2.843700 -0.000001 -33.855801
8.822073 17.022175 -3.485224 -168.229464 67.978733 -166.064260 -10.609200 2.702622 1.223046 -18.164207 2.837807 2.715113 -2.128462 -0.303242 8.910893 1.823859 8.336738 -14.435840 -1.220600 0.000000 -4.643400 9.097556 -0.154729 1.029454 3.062078 -0.681593 -25.339505 0.527955 -1.529278 30.268696 -3.137349 -16.568406 -0.940132 -2.909700 0.000000 -34.732400
9.006622 17.036421 -3.568802 -168.902392 66.394033 -166.561533 -10.637769 2.797647 1.355465 -17.849496 2.167144 4.005610 -2.110238 -0.296339 8.048746 1.671393 7.704997 -13.468851 -0.987801 0.000000 -6.174100 8.977983 -0.108202 1.091237 3.514939 -0.899724 -25.555276 0.748389 -1.292769 27.295164 -3.065002 -16.116593 -0.819091 -2.939800 0.000001 -35.797801
